# xmcd
#
# Track frame offsets: 
#        150
#        29941
#        78866
#        89635
#        125441
#        149623
#        177887
#        202699
#        242376
#        256500
#        274477
#        290044
#        310100
#        322898
#
# Disc length: 4698 seconds
#
# Revision: 0
# Processed by: cddbd v1.5.2PL0 Copyright (c) Steve Scherf et al.
# Submitted via: ExactAudioCopy v0.99pb4
#
DISCID=c612580e
DTITLE=ZIEBOLZ, Burkhard - Riesen and Zwerge (Krimi-7 CD-107 Tracks)
DYEAR=2006
DGENRE=Hörbuch
TTITLE0=016 Riesen and Zwerge-CD 2-01
TTITLE1=017 Riesen and Zwerge-CD 2-02
TTITLE2=018 Riesen and Zwerge-CD 2-03
TTITLE3=019 Riesen and Zwerge-CD 2-04
TTITLE4=020 Riesen and Zwerge-CD 2-05
TTITLE5=021 Riesen and Zwerge-CD 2-06
TTITLE6=022 Riesen and Zwerge-CD 2-07
TTITLE7=023 Riesen and Zwerge-CD 2-08
TTITLE8=024 Riesen and Zwerge-CD 2-09
TTITLE9=025 Riesen and Zwerge-CD 2-10
TTITLE10=026 Riesen and Zwerge-CD 2-11
TTITLE11=027 Riesen and Zwerge-CD 2-12
TTITLE12=028 Riesen and Zwerge-CD 2-13
TTITLE13=029 Riesen and Zwerge-CD 2-14
EXTD=
EXTT0=
EXTT1=
EXTT2=
EXTT3=
EXTT4=
EXTT5=
EXTT6=
EXTT7=
EXTT8=
EXTT9=
EXTT10=
EXTT11=
EXTT12=
EXTT13=
PLAYORDER=
